<?xml version="1.0" standalone="no"?>
<!DOCTYPE svg PUBLIC "-//W3C//DTD SVG 20010904//EN"
 "http://www.w3.org/TR/2001/REC-SVG-20010904/DTD/svg10.dtd">
<svg version="1.0" xmlns="http://www.w3.org/2000/svg"
 width="980.000000pt" height="980.000000pt" viewBox="0 0 980.000000 980.000000"
 preserveAspectRatio="xMidYMid meet">
<metadata>
Created by potrace 1.14, written by Peter Selinger 2001-2017
</metadata>
<g transform="translate(0.000000,980.000000) scale(0.100000,-0.100000)"
fill="#000000" stroke="none">
<path d="M4455 9785 c-961 -96 -1880 -472 -2624 -1073 -317 -257 -706 -670
-926 -983 -515 -734 -827 -1591 -896 -2463 -24 -301 -4 -774 46 -1101 173
-1132 725 -2150 1579 -2912 736 -657 1523 -1034 2511 -1203 258 -44 426 -53
860 -47 397 6 463 11 743 63 886 162 1702 549 2342 1111 959 842 1505 1855
1686 3128 21 150 31 813 15 1025 -20 259 -84 597 -173 910 -275 972 -855 1839
-1664 2486 -768 614 -1663 973 -2642 1059 -205 18 -674 18 -857 0z m781 -215
c508 -40 965 -146 1419 -330 184 -74 545 -254 708 -352 274 -166 516 -353 767
-594 582 -561 986 -1200 1229 -1946 97 -299 158 -578 198 -913 25 -214 25
-853 0 -1073 -63 -553 -206 -1040 -451 -1537 -145 -294 -271 -497 -490 -793
l-120 -162 -558 0 -558 0 -20 -32 c-26 -43 -26 -114 0 -148 17 -23 28 -26 122
-31 57 -4 263 -7 458 -8 l355 -1 -112 -105 c-416 -392 -781 -646 -1246 -870
-478 -230 -956 -368 -1492 -432 -215 -25 -864 -25 -1080 0 -540 64 -1018 202
-1500 436 -463 224 -787 447 -1189 819 l-159 147 419 6 c230 3 429 9 442 13
50 16 68 114 32 174 l-20 32 -539 0 -539 0 -125 167 c-273 368 -446 674 -632
1118 -227 543 -347 1216 -332 1850 22 892 286 1739 774 2478 560 849 1323
1450 2306 1816 369 137 887 247 1292 274 122 8 524 6 641 -3z"/>
<path d="M3105 8130 l-311 -5 -45 -27 c-54 -32 -110 -91 -139 -147 -23 -47
-27 -177 -9 -336 12 -114 8 -125 -65 -158 -70 -32 -139 -96 -168 -155 l-23
-47 -3 -907 -4 -906 -216 -4 c-272 -4 -304 -15 -370 -128 -27 -45 -27 -45 -30
-297 -7 -487 16 -523 354 -572 76 -11 167 -23 202 -27 34 -4 62 -9 62 -13 0
-14 -41 -71 -118 -166 l-82 -100 1 -435 c0 -239 4 -615 8 -835 8 -441 9 -445
74 -514 49 -52 108 -73 214 -79 l93 -5 0 -66 c0 -119 18 -240 42 -289 32 -66
144 -174 221 -212 54 -26 81 -32 187 -41 147 -13 315 -5 391 17 74 22 138 64
205 137 96 103 133 213 134 396 l0 64 1175 -5 c646 -2 1177 -7 1181 -11 4 -4
11 -57 16 -119 5 -62 16 -140 24 -173 28 -117 137 -233 259 -276 83 -29 220
-42 365 -35 208 10 287 41 393 156 86 92 117 180 132 371 l7 86 82 5 c96 6
156 29 205 79 70 71 66 12 69 956 l3 853 -69 87 c-83 106 -107 142 -99 149 3
4 94 19 202 34 107 16 219 36 248 44 112 32 158 90 177 221 13 93 13 414 -1
512 -28 205 -81 233 -435 233 l-212 0 -4 908 c-3 822 -5 911 -20 945 -26 58
-114 139 -180 167 -32 13 -60 31 -63 41 -3 10 -1 63 5 119 15 156 13 285 -6
323 -29 55 -72 103 -129 143 l-56 38 -307 7 c-357 9 -3111 8 -3567 -1z m129
-252 c4 -22 11 -95 16 -161 7 -100 14 -129 37 -176 32 -63 51 -76 144 -92 43
-7 535 -12 1509 -16 l1445 -5 57 60 c68 71 73 87 89 286 l13 149 178 -5 c159
-4 182 -7 206 -25 38 -28 38 -55 3 -444 -35 -384 -59 -572 -75 -594 -21 -28
-702 -38 -2276 -31 -1387 6 -1649 11 -1669 31 -15 15 -38 206 -76 613 -21 236
-31 382 -25 396 15 41 73 52 281 55 l136 1 7 -42z m3080 -45 c-3 -49 -9 -106
-13 -128 l-7 -40 -1410 -3 -1411 -2 -6 107 c-3 60 -9 118 -13 131 l-6 22 1436
0 1437 0 -7 -87z m-3698 -581 c6 -4 14 -42 18 -84 9 -102 43 -323 57 -373 14
-51 124 -163 169 -171 17 -4 33 -10 36 -15 2 -4 0 -75 -5 -156 -6 -81 -17
-292 -26 -468 -19 -378 -31 -545 -43 -557 -4 -4 -46 -3 -92 3 -47 6 -105 13
-129 16 l-44 5 5 888 c4 707 7 892 18 904 14 18 20 19 36 8z m4567 -31 c11
-51 17 -346 22 -1068 l6 -713 -78 0 c-59 0 -89 -5 -117 -20 -22 -10 -43 -17
-47 -14 -5 3 -9 22 -9 43 0 21 -20 287 -45 591 -25 304 -44 559 -41 565 2 7
17 15 33 18 34 7 123 83 152 130 23 38 54 197 72 375 11 103 15 122 30 122 10
0 19 -11 22 -29z m-2403 -1431 l0 -810 -865 0 -865 0 0 118 c0 195 51 1184 70
1352 6 47 10 90 10 95 0 6 5 17 10 25 12 20 214 26 1018 28 l622 2 0 -810z
m1814 793 c21 -6 32 -18 38 -39 17 -64 49 -396 108 -1114 17 -206 33 -392 37
-412 l6 -38 -887 0 -886 0 0 811 0 811 778 -5 c446 -2 790 -8 806 -14z m-3847
-1483 c50 -136 52 -164 17 -216 -42 -61 -148 -186 -197 -232 -44 -40 -47 -41
-99 -35 -124 13 -511 62 -513 65 -2 2 -6 123 -10 271 l-7 267 383 -2 384 -3
42 -115z m5116 -147 c-3 -148 -7 -269 -8 -271 -3 -4 -201 -30 -395 -52 l-174
-20 -44 43 c-24 23 -88 96 -142 163 l-98 120 52 142 51 142 382 0 383 0 -7
-267z m-769 -494 c131 -165 236 -302 234 -305 -3 -2 -146 -40 -319 -83 -173
-43 -340 -88 -371 -100 -83 -32 -144 -97 -159 -169 -14 -69 -7 -430 10 -485
14 -45 62 -102 105 -124 33 -18 289 -30 644 -32 l162 -1 0 -70 0 -70 -684 2
c-376 2 -687 6 -690 9 -4 3 21 123 54 265 80 338 95 429 81 480 -14 53 -71
118 -121 138 -72 29 -301 36 -1160 35 -824 0 -1060 -6 -1140 -30 -50 -15 -115
-84 -131 -140 -14 -46 -13 -50 78 -442 53 -228 64 -290 54 -300 -9 -9 -167
-13 -691 -15 l-680 -3 0 70 0 71 408 0 407 0 79 79 78 79 -4 248 c-4 277 -4
278 -75 346 -60 58 -87 67 -745 227 l-68 16 256 303 255 302 1947 -1 1947 0
239 -300z m306 -794 l0 -275 -356 0 -356 0 4 180 c2 101 8 184 14 190 6 6 163
48 350 94 186 46 340 84 342 85 1 0 2 -123 2 -274z m-4785 219 c83 -20 227
-55 320 -78 l170 -42 3 -187 2 -187 -350 0 -350 0 0 248 c0 136 3 257 7 270 4
18 11 22 27 18 11 -3 89 -22 171 -42z m3298 -170 c19 -5 27 -12 26 -28 0 -11
-35 -163 -77 -336 l-77 -315 -400 -7 c-220 -4 -622 -7 -894 -5 l-495 2 -86
345 -86 345 195 6 c245 8 1856 2 1894 -7z m1487 -1064 l0 -150 -2515 0 -2515
0 0 150 0 150 2515 0 2515 0 0 -150z m-3920 -478 c0 -160 -32 -229 -124 -267
-97 -41 -420 -36 -504 7 -71 37 -86 75 -90 231 l-4 127 361 0 361 0 0 -98z
m3541 77 c14 -22 11 -139 -6 -203 -31 -118 -85 -154 -246 -166 -156 -10 -308
2 -365 31 -77 38 -94 81 -94 237 l0 125 351 -5 c291 -3 352 -7 360 -19z"/>
<path d="M3806 6313 c-52 -15 -117 -55 -150 -92 -11 -11 -28 -21 -38 -21 -60
0 -136 -57 -174 -131 -33 -66 -36 -87 -40 -244 -2 -94 -9 -154 -19 -184 -16
-45 -11 -80 19 -121 13 -17 13 -171 2 -263 -7 -56 -26 -114 -42 -130 -23 -23
-8 -42 41 -53 6 -1 30 -7 55 -13 91 -21 227 -3 336 45 60 26 166 24 239 -5 77
-31 146 -47 217 -50 66 -3 163 14 195 35 l22 14 -24 47 c-27 55 -38 129 -39
263 -1 81 2 100 21 127 23 36 25 102 3 128 -8 10 -12 53 -11 128 3 198 -35
307 -137 399 -119 107 -336 162 -476 121z m274 -61 c90 -33 122 -53 185 -116
81 -82 96 -126 103 -289 4 -114 3 -127 -12 -121 -9 3 -14 9 -11 14 2 4 -2 16
-10 26 -15 19 -15 19 -30 0 -8 -11 -13 -30 -10 -44 l4 -24 -77 6 c-42 3 -90 8
-107 11 -120 23 -258 86 -336 152 -59 50 -82 54 -98 16 -24 -57 -85 -104 -151
-118 -19 -4 -44 -17 -55 -28 l-20 -22 -3 104 c-6 204 50 309 178 336 19 4 56
26 82 49 69 59 124 76 228 72 50 -3 108 -13 140 -24z m-190 -514 c30 -14 73
-31 95 -38 22 -7 50 -16 62 -21 28 -10 142 -25 224 -28 26 -1 26 -1 24 -77 -4
-102 -20 -157 -71 -234 -74 -113 -176 -165 -319 -165 -80 0 -97 4 -155 31 -78
38 -150 107 -183 177 -33 71 -40 105 -42 224 -2 96 0 103 19 109 59 18 108 48
142 87 l38 44 56 -42 c30 -23 80 -53 110 -67z m-414 -133 c0 -41 -3 -75 -6
-75 -15 0 -42 40 -46 67 -3 22 2 37 20 56 14 15 27 27 29 27 2 0 3 -34 3 -75z
m918 16 c7 -26 5 -37 -11 -58 -32 -44 -38 -37 -39 42 0 74 0 75 20 61 12 -7
25 -28 30 -45z m-894 -204 c14 -53 76 -148 122 -187 16 -14 54 -39 85 -57 l56
-31 -59 -19 c-69 -21 -255 -26 -274 -7 -9 9 -8 20 4 43 9 17 16 34 16 38 -1 5
2 33 6 63 4 30 8 91 9 135 1 44 3 82 3 85 5 11 20 -20 32 -63z m856 1 c-2 -89
13 -215 30 -256 9 -22 11 -39 5 -45 -19 -19 -168 -20 -243 -2 -40 9 -77 20
-82 22 -4 3 16 19 45 35 66 36 121 87 164 153 34 53 67 139 57 149 -3 3 2 6
10 6 12 0 15 -12 14 -62z"/>
<path d="M3633 5635 c-38 -26 -19 -41 52 -41 69 0 80 9 47 39 -23 21 -71 22
-99 2z"/>
<path d="M4092 5634 c-42 -29 -28 -42 46 -40 51 1 66 5 64 16 -9 38 -71 52
-110 24z"/>
<path d="M3792 5357 c-23 -27 53 -77 118 -77 39 0 90 21 113 47 15 17 16 22 3
32 -11 9 -22 8 -52 -9 -49 -25 -90 -25 -132 0 -38 24 -37 23 -50 7z"/>
<path d="M5725 6323 c-148 -27 -245 -86 -289 -175 -14 -29 -26 -61 -26 -73 0
-11 -6 -29 -13 -40 -8 -11 -19 -34 -25 -52 -9 -27 -8 -36 7 -55 16 -20 22 -21
45 -10 l26 12 0 -118 0 -117 -32 -15 c-106 -50 -97 -199 14 -241 21 -8 30 -22
43 -66 53 -183 228 -314 424 -318 141 -4 261 48 356 154 39 43 83 124 96 177
9 35 17 45 50 59 50 23 72 58 73 116 1 53 -38 115 -79 125 l-25 6 0 214 c0
250 2 220 -21 265 -27 54 -77 81 -147 80 -36 0 -82 8 -127 24 -132 46 -263 64
-350 48z m274 -74 c150 -49 136 -38 138 -110 3 -71 -5 -86 -82 -145 -139 -107
-311 -116 -484 -25 -45 23 -91 29 -131 16 l-22 -7 18 31 c37 63 98 78 211 50
64 -16 113 -3 162 42 33 30 34 32 16 45 -16 12 -22 10 -47 -11 -41 -34 -73
-40 -138 -26 -66 16 -95 17 -137 8 -32 -6 -32 -6 -20 16 19 34 59 77 73 77 6
0 17 6 23 13 9 12 73 34 146 51 47 11 209 -3 274 -25z m269 -58 c46 -24 54
-62 54 -238 0 -91 -2 -166 -4 -169 -10 -10 -76 37 -100 72 -26 37 -28 44 -28
169 -1 200 -4 183 28 180 15 -1 38 -7 50 -14z m-103 -347 c20 -43 81 -92 122
-100 37 -7 34 6 34 -164 1 -172 -31 -266 -117 -353 -205 -209 -540 -152 -662
113 -32 68 -36 86 -41 195 -3 66 -4 186 -1 267 l5 147 60 -30 c113 -56 195
-70 315 -54 73 10 203 75 241 121 13 15 15 11 21 -46 4 -35 14 -78 23 -96z
m-715 -284 c0 -44 -2 -80 -5 -80 -15 0 -55 55 -55 76 0 39 28 83 53 84 4 0 7
-36 7 -80z m959 54 c33 -43 24 -101 -19 -124 -19 -10 -20 -7 -20 70 0 44 4 80
9 80 5 0 19 -12 30 -26z"/>
<path d="M5623 5625 c-55 -24 -40 -63 16 -44 24 8 35 8 46 -1 8 -7 22 -10 30
-6 26 10 16 37 -20 52 -40 17 -32 17 -72 -1z"/>
<path d="M6117 5624 c-49 -26 -31 -61 22 -43 24 8 35 8 46 -1 18 -15 45 -6 45
14 0 32 -72 51 -113 30z"/>
<path d="M5633 5373 c-24 -9 -13 -32 33 -67 67 -51 145 -78 234 -80 71 -2 170
18 178 36 2 5 9 8 16 8 20 0 106 69 106 85 0 28 -23 26 -66 -4 -139 -100 -291
-106 -425 -16 -66 45 -62 43 -76 38z"/>
<path d="M3805 1833 c-46 -68 -24 -138 53 -165 55 -19 2019 -19 2074 0 77 27
98 92 52 162 l-27 40 -1063 0 -1063 0 -26 -37z"/>
</g>
</svg>
